<svg width="35" height="35" viewBox="0 0 35 35" fill="none" xmlns="http://www.w3.org/2000/svg">
<g clip-path="url(#clip0_365_58)">
<circle cx="17.6824" cy="17.3176" r="17.3176" fill="#212529"/>
<path d="M24.4773 11.0494C23.2101 10.4602 21.8551 10.032 20.4385 9.78821C20.2645 10.1008 20.0613 10.5212 19.9212 10.8556C18.4153 10.6306 16.9233 10.6306 15.4451 10.8556C15.305 10.5212 15.0971 10.1008 14.9216 9.78821C13.5035 10.032 12.147 10.4618 10.8797 11.0525C8.32374 14.8907 7.63085 18.6335 7.9773 22.3232C9.67257 23.5812 11.3155 24.3454 12.9307 24.8455C13.3295 24.3001 13.6852 23.7203 13.9916 23.1092C13.408 22.8889 12.8491 22.617 12.321 22.3013C12.4611 22.1981 12.5981 22.0903 12.7305 21.9793C15.9517 23.4765 19.4515 23.4765 22.6342 21.9793C22.7682 22.0903 22.9052 22.1981 23.0438 22.3013C22.5141 22.6185 21.9536 22.8904 21.3701 23.1108C21.6765 23.7203 22.0306 24.3016 22.431 24.847C24.0477 24.3469 25.6922 23.5828 27.3874 22.3232C27.7939 18.0459 26.693 14.3374 24.4773 11.0494ZM14.4304 20.054C13.4634 20.054 12.6705 19.157 12.6705 18.0646C12.6705 16.9723 13.4465 16.0737 14.4304 16.0737C15.4143 16.0737 16.2073 16.9707 16.1903 18.0646C16.1919 19.157 15.4143 20.054 14.4304 20.054ZM20.9343 20.054C19.9674 20.054 19.1744 19.157 19.1744 18.0646C19.1744 16.9723 19.9504 16.0737 20.9343 16.0737C21.9182 16.0737 22.7112 16.9707 22.6943 18.0646C22.6943 19.157 21.9182 20.054 20.9343 20.054Z" fill="white"/>
</g>
<defs>
<clipPath id="clip0_365_58">
<rect width="34.6353" height="34.6353" fill="white" transform="translate(0.364746)"/>
</clipPath>
</defs>
</svg>
