<svg width="61" height="60" viewBox="0 0 61 60" fill="none" xmlns="http://www.w3.org/2000/svg">
<path d="M50.5824 17.5642C46.7406 15.7657 42.6328 14.4586 38.3382 13.7144C37.8108 14.6685 37.1946 15.9518 36.7698 16.9726C32.2045 16.2857 27.6812 16.2857 23.1999 16.9726C22.7752 15.9518 22.145 14.6685 21.6128 13.7144C17.3136 14.4586 13.2011 15.7705 9.35931 17.5737C1.61043 29.2899 -0.490167 40.7152 0.560133 51.9782C5.6996 55.8184 10.6804 58.1512 15.5771 59.6777C16.7861 58.0128 17.8644 56.243 18.7933 54.3778C17.0241 53.7051 15.3297 52.8751 13.7286 51.9114C14.1534 51.5966 14.5688 51.2674 14.9702 50.9287C24.7357 55.4988 35.3461 55.4988 44.9948 50.9287C45.4009 51.2674 45.8164 51.5966 46.2365 51.9114C44.6307 52.8798 42.9316 53.7098 41.1624 54.3826C42.0913 56.243 43.165 58.0176 44.3786 59.6825C49.2801 58.1559 54.2654 55.8232 59.4049 51.9782C60.6373 38.9215 57.2997 27.6012 50.5824 17.5642ZM20.1237 45.0515C17.1922 45.0515 14.7882 42.3133 14.7882 38.9787C14.7882 35.6442 17.1409 32.9012 20.1237 32.9012C23.1066 32.9012 25.5106 35.6394 25.4592 38.9787C25.4639 42.3133 23.1066 45.0515 20.1237 45.0515ZM39.8414 45.0515C36.9099 45.0515 34.5058 42.3133 34.5058 38.9787C34.5058 35.6442 36.8585 32.9012 39.8414 32.9012C42.8242 32.9012 45.2282 35.6394 45.1769 38.9787C45.1769 42.3133 42.8242 45.0515 39.8414 45.0515Z" fill="#212529"/>
</svg>
