<svg width="35" height="35" viewBox="0 0 35 35" fill="none" xmlns="http://www.w3.org/2000/svg">
<g clip-path="url(#clip0_365_67)">
<circle cx="17.3765" cy="17.3176" r="17.3176" fill="#212529"/>
<path d="M17.3765 9.29375C19.9899 9.29375 20.2999 9.30354 21.3326 9.35085C23.9852 9.47157 25.2242 10.7302 25.3449 13.3632C25.3922 14.395 25.4012 14.705 25.4012 17.3185C25.4012 19.9327 25.3914 20.2419 25.3449 21.2737C25.2234 23.9043 23.9876 25.1654 21.3326 25.2861C20.2999 25.3334 19.9916 25.3432 17.3765 25.3432C14.763 25.3432 14.4531 25.3334 13.4212 25.2861C10.7621 25.1646 9.52959 23.9002 9.40887 21.2729C9.36156 20.2411 9.35177 19.9319 9.35177 17.3177C9.35177 14.7042 9.36237 14.395 9.40887 13.3624C9.53041 10.7302 10.7662 9.47075 13.4212 9.35003C14.4539 9.30354 14.763 9.29375 17.3765 9.29375ZM17.3765 7.52942C14.7182 7.52942 14.3854 7.54084 13.3413 7.58815C9.78653 7.75129 7.81094 9.72361 7.6478 13.2816C7.59968 14.3265 7.58826 14.6593 7.58826 17.3177C7.58826 19.976 7.59968 20.3096 7.64699 21.3537C7.81012 24.9084 9.78245 26.884 13.3405 27.0472C14.3854 27.0945 14.7182 27.1059 17.3765 27.1059C20.0348 27.1059 20.3684 27.0945 21.4125 27.0472C24.964 26.884 26.9445 24.9117 27.1052 21.3537C27.1533 20.3096 27.1647 19.976 27.1647 17.3177C27.1647 14.6593 27.1533 14.3265 27.106 13.2825C26.9461 9.73096 24.9713 7.7521 21.4133 7.58896C20.3684 7.54084 20.0348 7.52942 17.3765 7.52942ZM17.3765 12.2914C14.6007 12.2914 12.3502 14.5419 12.3502 17.3177C12.3502 20.0934 14.6007 22.3447 17.3765 22.3447C20.1523 22.3447 22.4027 20.0942 22.4027 17.3177C22.4027 14.5419 20.1523 12.2914 17.3765 12.2914ZM17.3765 20.5804C15.5746 20.5804 14.1137 19.1203 14.1137 17.3177C14.1137 15.5158 15.5746 14.0549 17.3765 14.0549C19.1783 14.0549 20.6392 15.5158 20.6392 17.3177C20.6392 19.1203 19.1783 20.5804 17.3765 20.5804ZM22.6018 10.9186C21.9525 10.9186 21.4264 11.4447 21.4264 12.0932C21.4264 12.7417 21.9525 13.2678 22.6018 13.2678C23.2502 13.2678 23.7755 12.7417 23.7755 12.0932C23.7755 11.4447 23.2502 10.9186 22.6018 10.9186Z" fill="white"/>
<path d="M17.3765 9.29375C19.9899 9.29375 20.2999 9.30354 21.3326 9.35085C23.9852 9.47157 25.2242 10.7302 25.3449 13.3632C25.3922 14.395 25.4012 14.705 25.4012 17.3185C25.4012 19.9327 25.3914 20.2419 25.3449 21.2737C25.2234 23.9043 23.9876 25.1654 21.3326 25.2861C20.2999 25.3334 19.9916 25.3432 17.3765 25.3432C14.763 25.3432 14.4531 25.3334 13.4212 25.2861C10.7621 25.1646 9.52959 23.9002 9.40887 21.2729C9.36156 20.2411 9.35177 19.9319 9.35177 17.3177C9.35177 14.7042 9.36237 14.395 9.40887 13.3624C9.53041 10.7302 10.7662 9.47075 13.4212 9.35003C14.4539 9.30354 14.763 9.29375 17.3765 9.29375ZM17.3765 7.52942C14.7182 7.52942 14.3854 7.54084 13.3413 7.58815C9.78653 7.75129 7.81094 9.72361 7.6478 13.2816C7.59968 14.3265 7.58826 14.6593 7.58826 17.3177C7.58826 19.976 7.59968 20.3096 7.64699 21.3537C7.81012 24.9084 9.78245 26.884 13.3405 27.0472C14.3854 27.0945 14.7182 27.1059 17.3765 27.1059C20.0348 27.1059 20.3684 27.0945 21.4125 27.0472C24.964 26.884 26.9445 24.9117 27.1052 21.3537C27.1533 20.3096 27.1647 19.976 27.1647 17.3177C27.1647 14.6593 27.1533 14.3265 27.106 13.2825C26.9461 9.73096 24.9713 7.7521 21.4133 7.58896C20.3684 7.54084 20.0348 7.52942 17.3765 7.52942ZM17.3765 12.2914C14.6007 12.2914 12.3502 14.5419 12.3502 17.3177C12.3502 20.0934 14.6007 22.3447 17.3765 22.3447C20.1523 22.3447 22.4027 20.0942 22.4027 17.3177C22.4027 14.5419 20.1523 12.2914 17.3765 12.2914ZM17.3765 20.5804C15.5746 20.5804 14.1137 19.1203 14.1137 17.3177C14.1137 15.5158 15.5746 14.0549 17.3765 14.0549C19.1783 14.0549 20.6392 15.5158 20.6392 17.3177C20.6392 19.1203 19.1783 20.5804 17.3765 20.5804ZM22.6018 10.9186C21.9525 10.9186 21.4264 11.4447 21.4264 12.0932C21.4264 12.7417 21.9525 13.2678 22.6018 13.2678C23.2502 13.2678 23.7755 12.7417 23.7755 12.0932C23.7755 11.4447 23.2502 10.9186 22.6018 10.9186Z" fill="white"/>
</g>
<defs>
<clipPath id="clip0_365_67">
<rect width="34.6353" height="34.6353" fill="white" transform="translate(0.0588379)"/>
</clipPath>
</defs>
</svg>
