<svg width="36" height="35" viewBox="0 0 36 35" fill="none" xmlns="http://www.w3.org/2000/svg">
<g clip-path="url(#clip0_365_61)">
<circle cx="17.906" cy="17.3176" r="17.3176" fill="#212529"/>
<path d="M12.6747 13.8197H8.7447C8.57028 13.8197 8.42896 13.9614 8.42896 14.1361V26.7894C8.42896 26.9642 8.57028 27.1059 8.7447 27.1059H12.6747C12.8491 27.1059 12.9905 26.9642 12.9905 26.7894V14.1361C12.9905 13.9614 12.8491 13.8197 12.6747 13.8197Z" fill="white"/>
<path d="M10.7111 7.52942C9.28114 7.52942 8.1178 8.69407 8.1178 10.1256C8.1178 11.5578 9.28114 12.7229 10.7111 12.7229C12.1399 12.7229 13.3023 11.5577 13.3023 10.1256C13.3024 8.69407 12.1399 7.52942 10.7111 7.52942Z" fill="white"/>
<path d="M22.6709 13.5051C21.0925 13.5051 19.9256 14.1852 19.2179 14.9579V14.1361C19.2179 13.9613 19.0766 13.8196 18.9022 13.8196H15.1385C14.9641 13.8196 14.8228 13.9613 14.8228 14.1361V26.7893C14.8228 26.9641 14.9641 27.1058 15.1385 27.1058H19.0599C19.2343 27.1058 19.3757 26.9641 19.3757 26.7893V20.5289C19.3757 18.4193 19.9474 17.5974 21.4148 17.5974C23.0129 17.5974 23.1398 18.915 23.1398 20.6374V26.7894C23.1398 26.9642 23.2812 27.1058 23.4556 27.1058H27.3785C27.5529 27.1058 27.6942 26.9642 27.6942 26.7894V19.8489C27.6942 16.7119 27.0974 13.5051 22.6709 13.5051Z" fill="white"/>
</g>
<defs>
<clipPath id="clip0_365_61">
<rect width="34.6353" height="34.6353" fill="white" transform="translate(0.588379)"/>
</clipPath>
</defs>
</svg>
