<svg width="98" height="97" viewBox="0 0 98 97" fill="none" xmlns="http://www.w3.org/2000/svg">
<g clip-path="url(#clip0_481_201)">
<path d="M40.2438 53.0789C43.8922 53.0789 46.9932 51.6743 49.5471 48.8651C52.1009 46.0559 53.3778 42.6447 53.3778 38.6316C53.3778 34.6184 52.1009 31.2072 49.5471 28.398C46.9932 25.5888 43.8922 24.1842 40.2438 24.1842C36.5955 24.1842 33.4944 25.5888 30.9406 28.398C28.3868 31.2072 27.1099 34.6184 27.1099 38.6316C27.1099 42.6447 28.3868 46.0559 30.9406 48.8651C33.4944 51.6743 36.5955 53.0789 40.2438 53.0789ZM70.8898 67.5263C73.2977 67.5263 75.359 66.5832 77.0737 64.697C78.7884 62.8108 79.6458 60.5434 79.6458 57.8947V19.3684C79.6458 16.7197 78.7884 14.4523 77.0737 12.5661C75.359 10.6799 73.2977 9.73682 70.8898 9.73682H9.59792C7.19002 9.73682 5.12872 10.6799 3.414 12.5661C1.69929 14.4523 0.841934 16.7197 0.841934 19.3684V57.8947C0.841934 60.5434 1.69929 62.8108 3.414 64.697C5.12872 66.5832 7.19002 67.5263 9.59792 67.5263H70.8898ZM62.1338 57.8947H18.3539C18.3539 55.246 17.4965 52.9786 15.7818 51.0924C14.0671 49.2062 12.0058 48.2631 9.59792 48.2631V29C12.0058 29 14.0671 28.0569 15.7818 26.1707C17.4965 24.2845 18.3539 22.0171 18.3539 19.3684H62.1338C62.1338 22.0171 62.9911 24.2845 64.7059 26.1707C66.4206 28.0569 68.4819 29 70.8898 29V48.2631C68.4819 48.2631 66.4206 49.2062 64.7059 51.0924C62.9911 52.9786 62.1338 55.246 62.1338 57.8947ZM13.9759 86.7894H88.4017C90.8096 86.7894 92.8709 85.8464 94.5856 83.9602C96.3004 82.074 97.1577 79.8065 97.1577 77.1579V24.1842H88.4017V77.1579H13.9759V86.7894Z" fill="#4263EB"/>
</g>
<defs>
<clipPath id="clip0_481_201">
<rect width="96.3158" height="96.3158" fill="white" transform="translate(0.841797 0.105225)"/>
</clipPath>
</defs>
</svg>
