<svg width="40" height="40" viewBox="0 0 40 40" fill="none" xmlns="http://www.w3.org/2000/svg">
<path d="M20 37.6667C29.757 37.6667 37.6666 29.757 37.6666 20C37.6666 10.243 29.757 2.33334 20 2.33334C10.243 2.33334 2.33331 10.243 2.33331 20C2.33331 29.757 10.243 37.6667 20 37.6667Z" fill="#D9D9D9"/>
<path d="M33 31C32.0464 32.7553 30.2847 34.2745 27.957 35.3488C25.6292 36.4232 22.8495 37 20 37C17.1505 37 14.3708 36.4232 12.043 35.3488C9.71526 34.2745 7.95356 32.7553 7 31" fill="#868E96"/>
<path d="M7.12122 32.0933C8.06588 29.4331 9.81115 27.1307 12.1172 25.5024C14.4233 23.8742 17.177 23 20 23C22.8229 23 25.5767 23.8742 27.8827 25.5024C30.1888 27.1307 31.9341 29.4331 32.8787 32.0933" fill="#868E96"/>
<path d="M20 23C24.2342 23 27.6666 19.5675 27.6666 15.3333C27.6666 11.0991 24.2342 7.66666 20 7.66666C15.7658 7.66666 12.3333 11.0991 12.3333 15.3333C12.3333 19.5675 15.7658 23 20 23Z" fill="#868E96"/>
</svg>
