<?xml version="1.0" standalone="no"?>
<!DOCTYPE svg PUBLIC "-//W3C//DTD SVG 20010904//EN"
 "http://www.w3.org/TR/2001/REC-SVG-20010904/DTD/svg10.dtd">
<svg version="1.0" xmlns="http://www.w3.org/2000/svg"
 width="640.000000pt" height="1280.000000pt" viewBox="0 0 640.000000 1280.000000"
 preserveAspectRatio="xMidYMid meet">
<metadata>
Created by potrace 1.15, written by Peter Selinger 2001-2017
</metadata>
<g transform="translate(0.000000,1280.000000) scale(0.100000,-0.100000)"
fill="#000000" stroke="none">
<path d="M1210 12790 c0 -5 5 -10 11 -10 5 0 7 5 4 10 -3 6 -8 10 -11 10 -2 0
-4 -4 -4 -10z"/>
<path d="M2522 12650 c-18 -11 -43 -20 -57 -20 -13 0 -28 -6 -32 -12 -8 -13
-23 -23 -77 -56 -16 -9 -38 -27 -50 -40 -15 -17 -27 -21 -47 -17 -18 4 -37 0
-53 -10 -14 -9 -29 -14 -35 -11 -5 4 -21 1 -35 -5 -21 -10 -29 -9 -44 4 -15
14 -28 15 -87 6 -38 -5 -69 -10 -70 -12 0 -1 -6 -14 -13 -29 -12 -30 -24 -33
-104 -29 -69 4 -138 -40 -138 -87 0 -29 -60 -92 -88 -92 -29 0 -82 -48 -82
-74 0 -33 -25 -62 -85 -96 -35 -20 -60 -43 -70 -64 -9 -18 -27 -39 -40 -46
-39 -21 -61 -120 -33 -148 8 -8 8 -15 1 -24 -7 -8 -10 -55 -10 -113 2 -118 25
-180 66 -180 23 0 24 -3 26 -77 1 -43 7 -83 13 -90 6 -7 13 -31 17 -53 4 -22
14 -63 22 -92 8 -30 11 -66 8 -87 -5 -24 0 -54 14 -95 19 -56 20 -62 5 -112
-17 -57 -12 -89 27 -177 10 -23 19 -49 19 -57 0 -7 8 -21 18 -31 11 -12 19
-41 23 -88 11 -121 22 -186 30 -192 5 -3 9 -23 9 -46 0 -25 8 -51 22 -71 63
-88 83 -167 93 -357 8 -156 -14 -322 -65 -495 -60 -208 -130 -478 -125 -483 3
-3 19 7 35 23 21 20 30 38 30 59 0 17 10 47 22 66 15 25 22 52 22 91 1 58 40
158 62 159 6 0 18 10 27 23 8 12 17 20 21 16 3 -3 -12 -27 -34 -53 -36 -43
-40 -54 -40 -102 0 -52 1 -54 36 -69 26 -11 41 -12 55 -5 11 7 19 7 19 1 0 -5
-22 -15 -49 -22 l-49 -12 0 -44 c0 -33 3 -43 13 -39 7 2 21 -1 31 -9 18 -13
17 -14 -9 -39 -15 -14 -27 -30 -27 -36 0 -16 -19 -12 -47 9 -24 20 -25 20 -61
-1 -44 -24 -52 -35 -52 -69 0 -15 -7 -46 -16 -70 -8 -24 -44 -170 -80 -324
-57 -248 -133 -507 -178 -617 -24 -56 -20 -77 25 -125 39 -43 41 -47 34 -91
-14 -95 -197 -623 -265 -763 -22 -47 -43 -103 -46 -125 -3 -21 -12 -52 -19
-69 -7 -16 -16 -48 -20 -70 -4 -22 -20 -81 -36 -132 -31 -98 -35 -123 -19
-123 23 0 7 -42 -44 -111 -29 -41 -58 -84 -65 -96 -6 -13 -18 -23 -26 -23 -16
0 -66 -61 -111 -135 l-31 -52 34 -30 35 -30 -28 -18 c-24 -15 -26 -16 -21 -1
8 20 -12 66 -28 66 -7 0 -20 -10 -31 -21 -37 -42 -116 -99 -137 -99 -11 0 -30
-9 -42 -20 -18 -17 -25 -18 -52 -8 -31 12 -63 6 -63 -11 0 -6 18 -15 40 -21
34 -9 40 -15 40 -38 0 -15 6 -36 14 -47 31 -45 36 -177 11 -275 -11 -47 -53
-147 -83 -200 -53 -94 -53 -93 -57 -288 -4 -173 -6 -194 -33 -278 -16 -50 -46
-122 -66 -160 -42 -82 -44 -111 -14 -164 20 -35 21 -42 10 -74 -7 -20 -11 -40
-8 -45 3 -5 27 -16 53 -25 41 -14 48 -14 63 -1 24 21 40 19 101 -15 56 -30 93
-38 104 -20 15 24 80 40 162 40 103 0 206 30 230 67 9 13 21 64 27 112 10 84
13 91 53 134 24 26 43 53 43 62 0 8 4 23 9 33 6 9 17 42 27 72 18 62 54 130
80 151 12 10 11 5 -5 -21 -11 -19 -21 -52 -21 -73 0 -21 -11 -60 -25 -88 -29
-55 -27 -68 8 -62 22 4 25 1 31 -41 5 -32 11 -43 21 -40 16 6 60 -65 69 -111
5 -28 3 -32 -52 -58 -136 -67 -152 -77 -158 -103 -8 -32 0 -40 30 -26 25 11
106 5 106 -9 0 -5 -15 -12 -33 -17 -26 -7 -32 -13 -29 -34 2 -23 -1 -25 -25
-20 -15 3 -34 13 -43 24 -14 17 -17 17 -59 -17 -55 -44 -90 -46 -113 -5 -16
29 -20 30 -83 30 -64 0 -126 -17 -139 -38 -4 -6 11 -38 33 -72 22 -34 52 -97
67 -142 35 -106 31 -223 -9 -308 -32 -67 -33 -77 -6 -85 14 -5 28 0 45 16 24
22 54 30 193 49 92 13 128 28 179 74 24 22 50 36 65 36 19 0 31 8 42 31 9 17
31 37 49 44 30 13 37 12 71 -5 21 -11 47 -29 58 -41 17 -18 27 -20 66 -15 25
3 69 9 98 12 l52 7 3 -64 c3 -55 6 -64 24 -69 20 -5 81 -67 73 -74 -2 -2 -31
3 -64 9 -50 11 -64 11 -82 -1 -31 -20 -48 -18 -66 8 -16 23 -16 23 -17 -12 -1
-62 -14 -64 -43 -5 -15 31 -27 61 -27 68 0 18 -140 138 -152 131 -5 -4 24 -40
64 -83 96 -98 111 -125 142 -251 59 -240 53 -397 -23 -642 -44 -144 -89 -250
-118 -280 -25 -26 -24 -48 3 -48 8 0 14 -7 14 -15 0 -9 14 -17 40 -21 22 -4
47 -12 55 -18 43 -31 47 -259 6 -396 -5 -19 0 -35 20 -65 16 -23 24 -44 19
-50 -5 -5 -8 -21 -8 -35 0 -27 -27 -169 -41 -212 -7 -21 -3 -39 21 -84 l31
-58 -13 -120 c-19 -191 -28 -237 -49 -260 -68 -74 -122 -206 -93 -225 5 -3 12
-19 16 -35 9 -38 -67 -201 -91 -192 -11 5 -13 2 -9 -10 17 -44 16 -67 -4 -122
-12 -33 -35 -73 -51 -88 -17 -17 -29 -38 -29 -53 0 -15 -8 -31 -20 -39 -11 -7
-20 -23 -20 -36 0 -14 -4 -28 -10 -31 -20 -12 -10 -31 16 -30 26 0 37 -11 48
-48 6 -17 9 -16 35 10 16 15 35 33 42 40 8 7 20 19 27 28 7 8 23 15 36 15 13
0 31 9 41 20 16 18 77 38 98 32 10 -3 67 15 115 35 18 8 56 13 85 12 47 -3 52
-1 55 19 3 23 62 77 92 85 9 2 35 -2 56 -9 21 -8 58 -14 80 -14 27 0 44 -5 47
-14 3 -8 44 -27 90 -42 l85 -27 50 21 c68 29 81 28 143 -14 49 -34 55 -36 83
-25 84 34 129 35 259 6 72 -17 133 -53 260 -155 101 -81 191 -126 232 -116 22
6 139 87 246 172 35 29 93 69 129 90 35 20 92 63 126 95 105 98 277 166 348
139 49 -18 52 -15 46 54 -4 45 -12 74 -28 95 -25 34 -27 52 -11 68 9 9 7 23
-6 55 -13 32 -17 70 -16 146 0 99 -1 103 -25 119 l-26 16 22 12 c19 10 20 13
5 25 -9 8 -15 26 -13 45 1 18 -4 40 -11 49 -8 9 -11 26 -7 40 4 16 1 28 -8 33
-8 4 -16 19 -18 33 -2 15 -14 30 -30 38 -29 13 -48 66 -30 84 6 6 8 17 5 25
-3 7 3 23 12 33 10 11 15 23 12 27 -4 3 0 11 7 17 8 6 26 33 41 61 14 27 31
52 37 56 6 4 12 29 13 55 1 27 5 58 9 69 14 37 28 70 37 87 5 10 6 24 3 31 -3
9 3 17 19 21 31 7 207 178 207 201 0 9 9 28 20 42 11 14 20 35 20 46 0 11 10
36 22 55 27 44 41 137 25 164 -14 22 3 38 42 38 14 0 33 8 43 17 17 15 21 15
54 -1 34 -15 38 -16 54 -1 10 9 26 15 36 13 16 -2 18 3 16 34 -6 63 48 74 105
22 27 -25 67 -32 78 -13 4 6 13 8 20 5 26 -10 41 31 52 142 3 28 9 52 13 52 5
0 18 25 30 56 19 53 20 58 4 75 -16 18 -15 21 20 66 20 25 36 50 36 55 0 16
-28 20 -52 7 -13 -7 -36 -14 -52 -15 -19 -1 -37 -11 -49 -28 -13 -18 -25 -25
-37 -21 -10 3 -21 1 -25 -5 -3 -6 -11 -8 -16 -4 -6 3 -19 -2 -30 -12 -18 -17
-20 -16 -44 6 -14 13 -25 32 -25 41 0 10 -13 33 -30 52 -33 38 -50 76 -50 113
0 16 -8 28 -23 35 -13 6 -33 31 -45 55 -12 24 -52 83 -89 131 -37 49 -72 103
-78 121 -8 22 -25 40 -51 54 -21 11 -41 22 -43 24 -2 2 13 22 33 44 38 42 39
60 5 60 -10 0 -19 6 -19 13 0 35 42 151 69 191 17 24 31 51 31 58 0 7 9 27 20
45 l19 32 -22 3 c-21 3 -22 7 -18 92 4 115 19 158 57 171 30 11 95 72 158 150
29 35 44 44 74 47 30 2 40 9 52 35 8 17 28 41 43 53 38 30 51 66 36 101 -9 24
-8 32 10 55 12 15 21 31 21 37 0 6 17 33 39 61 60 79 96 156 82 178 -6 10 -11
35 -11 56 0 76 -88 160 -156 149 -19 -3 -49 -13 -66 -21 -41 -21 -71 -20 -99
3 -21 17 -23 22 -12 53 6 18 11 47 11 65 1 34 -6 39 -110 68 -44 12 -61 22
-71 43 -21 41 -28 123 -13 151 12 22 11 27 -15 55 -80 86 -109 128 -109 159 0
18 -7 42 -15 55 -14 19 -14 24 -1 44 7 13 16 55 19 95 4 71 4 72 -24 83 -16 7
-34 18 -40 26 -6 8 -20 14 -31 14 -29 0 -68 45 -68 79 0 27 -4 31 -42 38 -38
7 -45 13 -66 55 -16 34 -33 53 -61 67 -31 17 -40 27 -46 58 -3 21 -15 47 -25
58 -10 11 -20 35 -22 54 l-5 33 81 -4 c54 -3 94 -11 121 -25 27 -14 52 -19 77
-16 21 3 51 1 67 -5 25 -9 39 -6 91 19 56 26 70 29 139 24 42 -2 91 -9 110
-14 26 -8 40 -7 63 5 21 11 44 13 86 8 33 -3 75 -1 99 5 38 10 44 16 54 54 6
23 15 52 20 65 5 13 9 34 9 47 0 13 7 45 16 70 14 43 14 49 -1 71 -15 23 -15
27 -1 50 9 13 28 27 41 30 16 4 35 23 50 48 13 22 34 47 45 54 19 12 21 21 19
82 -3 54 0 72 14 87 10 12 18 39 19 72 1 29 6 55 10 57 4 3 8 15 8 28 0 12 5
27 12 34 9 9 9 12 0 12 -7 0 -12 9 -12 21 0 11 -9 32 -20 46 -11 14 -20 32
-20 39 0 7 -8 15 -18 18 -10 4 -23 21 -30 39 -18 50 -48 77 -85 77 -27 0 -52
11 -86 36 -1 2 -4 30 -6 64 -2 33 -8 66 -13 73 -7 8 -6 20 3 37 8 14 14 33 15
42 0 24 49 60 71 53 13 -5 22 1 30 18 10 22 19 25 85 30 40 3 78 8 84 12 5 3
10 24 10 46 0 47 39 94 86 104 16 4 34 8 40 10 6 2 14 25 17 52 4 39 2 52 -14
68 -81 85 -111 152 -91 206 13 33 70 117 82 121 7 2 8 23 3 58 -7 51 -11 56
-46 74 -35 17 -38 21 -32 50 4 17 17 47 30 66 13 19 33 56 44 82 17 39 17 48
6 58 -8 6 -16 37 -20 68 -3 31 -13 71 -21 87 -18 38 -19 56 -6 121 6 28 8 76
5 107 -5 49 -3 57 11 57 27 0 18 91 -10 105 -42 21 -54 37 -54 73 0 46 -31
106 -97 189 -29 37 -53 75 -53 84 0 32 31 39 77 18 37 -17 47 -18 89 -7 35 10
52 21 63 41 9 16 35 56 58 90 41 58 42 62 27 84 -21 33 -11 56 48 105 33 28
61 65 83 108 42 82 60 98 131 115 51 12 59 11 69 -2 11 -14 14 -14 38 1 14 10
33 29 42 43 14 21 22 24 52 18 43 -8 65 8 57 41 -5 19 -1 24 23 29 47 11 73
24 73 39 0 7 6 19 14 25 8 7 12 20 9 30 -4 14 3 22 30 30 47 16 62 34 42 51
-19 16 -19 34 0 50 13 10 19 10 34 -4 17 -16 22 -16 55 -2 41 17 42 18 21 50
-15 22 -14 24 4 29 30 7 55 52 42 75 -8 15 -6 23 9 37 11 10 22 27 26 38 4 12
20 34 35 50 16 16 29 33 29 38 0 5 15 29 33 53 69 95 75 110 61 139 -8 14 -22
28 -33 32 -10 3 -42 33 -71 66 -74 85 -154 124 -277 133 -86 7 -92 6 -102 -13
-6 -11 -30 -26 -52 -33 l-41 -12 -44 46 c-37 40 -43 51 -38 76 4 17 1 32 -5
36 -6 4 -11 18 -11 31 0 13 -4 27 -10 30 -6 4 -3 20 9 43 10 20 26 71 35 112
9 41 20 86 23 100 3 14 5 29 4 34 -1 4 3 14 9 21 13 16 7 20 -42 29 -21 4 -40
11 -43 16 -3 5 4 39 17 75 24 73 21 89 -25 115 -24 13 -28 13 -49 -7 -36 -34
-72 -43 -174 -43 -81 0 -97 3 -114 20 -11 11 -20 31 -20 43 0 30 -25 52 -67
60 l-33 7 0 -43 c0 -55 -13 -67 -73 -67 -26 0 -57 -5 -68 -10 -32 -18 -99 6
-135 49 l-32 36 -34 -33 c-27 -26 -42 -32 -73 -31 -22 1 -44 0 -50 -1 -25 -6
-37 2 -50 34 -12 29 -23 37 -62 49 -43 12 -50 12 -66 -2 -11 -9 -26 -16 -35
-16 -13 0 -17 -9 -17 -37 0 -20 -3 -40 -7 -43 -4 -4 -1 -20 8 -36 13 -27 13
-33 -8 -76 -19 -39 -31 -50 -63 -62 -22 -7 -69 -27 -105 -44 -72 -33 -153 -47
-165 -27 -5 8 -24 -4 -60 -40 l-52 -52 -33 64 c-36 70 -44 78 -70 71 -10 -3
-21 0 -24 6 -5 8 -13 8 -27 1 -14 -8 -18 -17 -13 -35 5 -22 1 -25 -58 -42 -34
-10 -79 -18 -98 -17 -31 1 -35 4 -32 25 2 13 11 41 21 61 l18 36 -33 7 c-18 3
-45 3 -59 -1 -21 -5 -33 0 -62 30 -40 40 -58 44 -91 20 -16 -11 -34 -14 -56
-10 -25 5 -37 2 -51 -14 -10 -11 -28 -20 -40 -20 -51 0 -85 -12 -85 -31 0 -12
-7 -19 -19 -19 -11 0 -23 -5 -26 -11 -4 -5 -14 -9 -23 -7 -14 3 -16 16 -13 91
2 81 1 87 -17 87 -16 0 -21 -9 -27 -48 -3 -26 -9 -53 -13 -59 -11 -18 -57 -32
-81 -26 -24 6 -61 -21 -61 -44 0 -20 -55 -73 -75 -73 -9 0 -29 -9 -44 -21 -22
-16 -45 -21 -98 -23 -87 -1 -103 10 -103 73 0 77 -8 93 -44 89 -27 -3 -31 0
-34 22 -2 14 -8 35 -14 47 -9 17 -6 31 10 67 12 25 30 50 41 55 10 6 23 28 28
48 6 29 14 39 31 41 13 2 28 14 34 28 8 17 19 24 38 24 73 0 81 111 12 173
-24 22 -83 18 -112 -8 -11 -10 -23 -15 -26 -12 -14 14 -24 105 -18 160 4 31 5
57 3 57 -2 0 -19 -9 -37 -20z m-1381 -7838 c-5 -10 -18 -25 -28 -33 -12 -10
-11 -5 6 19 24 35 38 43 22 14z"/>
<path d="M1593 9028 c-13 -17 -16 -75 -4 -82 16 -10 39 4 45 28 12 48 -17 86
-41 54z"/>
<path d="M1027 4663 c-2 -5 -7 -21 -11 -38 -6 -28 -5 -29 9 -11 8 11 15 28 15
38 0 19 -6 23 -13 11z"/>
</g>
</svg>
