<svg width="50" height="50" viewBox="0 0 50 50" fill="none" xmlns="http://www.w3.org/2000/svg">
<circle cx="25" cy="25" r="25" fill="#4263EB"/>
<path d="M24.9587 17.9375L21.5189 14.4375L23.2236 12.6562L24.9587 14.4375L29.2813 10L30.986 11.75L24.9587 17.9375ZM15.2176 40C14.8726 40 14.5834 39.8802 14.3501 39.6406C14.1167 39.401 14 39.1042 14 38.75V28.75L16.557 21.25C16.6788 20.875 16.897 20.5729 17.2115 20.3438C17.5261 20.1146 17.8761 20 18.2617 20H31.6557C32.0413 20 32.3914 20.1146 32.7059 20.3438C33.0205 20.5729 33.2386 20.875 33.3604 21.25L35.9174 28.75V38.75C35.9174 39.1042 35.8007 39.401 35.5674 39.6406C35.334 39.8802 35.0448 40 34.6998 40H33.4822C33.1372 40 32.848 39.8802 32.6146 39.6406C32.3812 39.401 32.2645 39.1042 32.2645 38.75V37.5H17.6529V38.75C17.6529 39.1042 17.5362 39.401 17.3028 39.6406C17.0695 39.8802 16.7803 40 16.4353 40H15.2176ZM17.4094 26.25H32.508L31.2295 22.5H18.6879L17.4094 26.25ZM19.4794 33.75C19.9867 33.75 20.4179 33.5677 20.7731 33.2031C21.1282 32.8385 21.3058 32.3958 21.3058 31.875C21.3058 31.3542 21.1282 30.9115 20.7731 30.5469C20.4179 30.1823 19.9867 30 19.4794 30C18.972 30 18.5408 30.1823 18.1856 30.5469C17.8305 30.9115 17.6529 31.3542 17.6529 31.875C17.6529 32.3958 17.8305 32.8385 18.1856 33.2031C18.5408 33.5677 18.972 33.75 19.4794 33.75ZM30.4381 33.75C30.9454 33.75 31.3767 33.5677 31.7318 33.2031C32.0869 32.8385 32.2645 32.3958 32.2645 31.875C32.2645 31.3542 32.0869 30.9115 31.7318 30.5469C31.3767 30.1823 30.9454 30 30.4381 30C29.9307 30 29.4995 30.1823 29.1443 30.5469C28.7892 30.9115 28.6116 31.3542 28.6116 31.875C28.6116 32.3958 28.7892 32.8385 29.1443 33.2031C29.4995 33.5677 29.9307 33.75 30.4381 33.75ZM16.4353 35H33.4822V28.75H16.4353V35Z" fill="white"/>
</svg>
