<svg width="97" height="97" viewBox="0 0 97 97" fill="none" xmlns="http://www.w3.org/2000/svg">
<g clip-path="url(#clip0_667_182)">
<path d="M13.9052 27.624H74.5842V18.4511H13.9052V27.624ZM13.9052 91.8345C11.5214 91.8345 9.48073 90.9364 7.78317 89.14C6.0856 87.3436 5.23682 85.1842 5.23682 82.6616V18.4511C5.23682 15.9285 6.0856 13.7691 7.78317 11.9727C9.48073 10.1763 11.5214 9.27816 13.9052 9.27816H18.2394V0.105225H26.9079V9.27816H61.5816V0.105225H70.25V9.27816H74.5842C76.968 9.27816 79.0087 10.1763 80.7063 11.9727C82.4038 13.7691 83.2526 15.9285 83.2526 18.4511V44.4793C81.8801 43.7913 80.4715 43.218 79.0268 42.7594C77.582 42.3007 76.1012 41.9567 74.5842 41.7274V36.797H13.9052V82.6616H41.2108C41.7164 84.3433 42.3124 85.9486 42.9986 87.4774C43.6849 89.0062 44.4975 90.4586 45.4366 91.8345H13.9052ZM70.25 96.421C64.2543 96.421 59.1436 94.1851 54.9177 89.7133C50.6919 85.2415 48.5789 79.8333 48.5789 73.4887C48.5789 67.1441 50.6919 61.7359 54.9177 57.2641C59.1436 52.7923 64.2543 50.5564 70.25 50.5564C76.2456 50.5564 81.3564 52.7923 85.5823 57.2641C89.8081 61.7359 91.921 67.1441 91.921 73.4887C91.921 79.8333 89.8081 85.2415 85.5823 89.7133C81.3564 94.1851 76.2456 96.421 70.25 96.421ZM77.5098 84.3815L80.5437 81.171L72.4171 72.5714V59.7293H68.0829V74.406L77.5098 84.3815Z" fill="#4263EB"/>
</g>
<defs>
<clipPath id="clip0_667_182">
<rect width="96.3158" height="96.3158" fill="white" transform="translate(0.421143 0.105225)"/>
</clipPath>
</defs>
</svg>
