<svg width="61" height="60" viewBox="0 0 61 60" fill="none" xmlns="http://www.w3.org/2000/svg">
<path d="M30.4929 5.35188C38.416 5.35188 39.3557 5.38157 42.4863 5.52508C50.5281 5.89127 54.2844 9.7091 54.6504 17.6961C54.7939 20.8261 54.8211 21.7663 54.8211 29.6939C54.8211 37.624 54.7914 38.5617 54.6504 41.6917C54.282 49.6713 50.5356 53.4965 42.4863 53.8627C39.3557 54.0062 38.4209 54.0359 30.4929 54.0359C22.5698 54.0359 21.6301 54.0062 18.5019 53.8627C10.4403 53.4941 6.70381 49.6589 6.33782 41.6892C6.1944 38.5593 6.16472 37.6215 6.16472 29.6914C6.16472 21.7638 6.19687 20.8261 6.33782 17.6936C6.70628 9.7091 10.4527 5.8888 18.5019 5.52261C21.6326 5.38157 22.5698 5.35188 30.4929 5.35188ZM30.4929 0C22.4338 0 21.4248 0.03464 18.2596 0.178149C7.48276 0.673006 1.49345 6.65583 0.998879 17.4487C0.85298 20.6182 0.818359 21.6277 0.818359 29.6914C0.818359 37.7551 0.85298 38.7671 0.996407 41.9342C1.49098 52.7171 7.4704 58.7098 18.2571 59.2047C21.4248 59.3482 22.4338 59.3829 30.4929 59.3829C38.552 59.3829 39.5634 59.3482 42.7287 59.2047C53.4956 58.7098 59.4997 52.727 59.9869 41.9342C60.1328 38.7671 60.1674 37.7551 60.1674 29.6914C60.1674 21.6277 60.1328 20.6182 59.9894 17.4511C59.5047 6.6781 53.5178 0.67548 42.7312 0.180623C39.5634 0.03464 38.552 0 30.4929 0ZM30.4929 14.4449C22.0777 14.4449 15.255 21.2714 15.255 29.6914C15.255 38.1114 22.0777 44.9404 30.4929 44.9404C38.9081 44.9404 45.7308 38.1139 45.7308 29.6914C45.7308 21.2714 38.9081 14.4449 30.4929 14.4449ZM30.4929 39.5886C25.0303 39.5886 20.6014 35.1596 20.6014 29.6914C20.6014 24.2257 25.0303 19.7943 30.4929 19.7943C35.9555 19.7943 40.3844 24.2257 40.3844 29.6914C40.3844 35.1596 35.9555 39.5886 30.4929 39.5886ZM46.3341 10.2807C44.3657 10.2807 42.7707 11.8766 42.7707 13.8436C42.7707 15.8107 44.3657 17.4066 46.3341 17.4066C48.3001 17.4066 49.8926 15.8107 49.8926 13.8436C49.8926 11.8766 48.3001 10.2807 46.3341 10.2807Z" fill="#212529"/>
<path d="M30.4929 5.35188C38.416 5.35188 39.3557 5.38157 42.4863 5.52508C50.5281 5.89127 54.2844 9.7091 54.6504 17.6961C54.7939 20.8261 54.8211 21.7663 54.8211 29.6939C54.8211 37.624 54.7914 38.5617 54.6504 41.6917C54.282 49.6713 50.5356 53.4965 42.4863 53.8627C39.3557 54.0062 38.4209 54.0359 30.4929 54.0359C22.5698 54.0359 21.6301 54.0062 18.5019 53.8627C10.4403 53.4941 6.70381 49.6589 6.33782 41.6892C6.1944 38.5593 6.16472 37.6215 6.16472 29.6914C6.16472 21.7638 6.19687 20.8261 6.33782 17.6936C6.70628 9.7091 10.4527 5.8888 18.5019 5.52261C21.6326 5.38157 22.5698 5.35188 30.4929 5.35188ZM30.4929 0C22.4338 0 21.4248 0.03464 18.2596 0.178149C7.48276 0.673006 1.49345 6.65583 0.998879 17.4487C0.85298 20.6182 0.818359 21.6277 0.818359 29.6914C0.818359 37.7551 0.85298 38.7671 0.996407 41.9342C1.49098 52.7171 7.4704 58.7098 18.2571 59.2047C21.4248 59.3482 22.4338 59.3829 30.4929 59.3829C38.552 59.3829 39.5634 59.3482 42.7287 59.2047C53.4956 58.7098 59.4997 52.727 59.9869 41.9342C60.1328 38.7671 60.1674 37.7551 60.1674 29.6914C60.1674 21.6277 60.1328 20.6182 59.9894 17.4511C59.5047 6.6781 53.5178 0.67548 42.7312 0.180623C39.5634 0.03464 38.552 0 30.4929 0ZM30.4929 14.4449C22.0777 14.4449 15.255 21.2714 15.255 29.6914C15.255 38.1114 22.0777 44.9404 30.4929 44.9404C38.9081 44.9404 45.7308 38.1139 45.7308 29.6914C45.7308 21.2714 38.9081 14.4449 30.4929 14.4449ZM30.4929 39.5886C25.0303 39.5886 20.6014 35.1596 20.6014 29.6914C20.6014 24.2257 25.0303 19.7943 30.4929 19.7943C35.9555 19.7943 40.3844 24.2257 40.3844 29.6914C40.3844 35.1596 35.9555 39.5886 30.4929 39.5886ZM46.3341 10.2807C44.3657 10.2807 42.7707 11.8766 42.7707 13.8436C42.7707 15.8107 44.3657 17.4066 46.3341 17.4066C48.3001 17.4066 49.8926 15.8107 49.8926 13.8436C49.8926 11.8766 48.3001 10.2807 46.3341 10.2807Z" fill="#212529"/>
</svg>
