<svg width="60" height="60" viewBox="0 0 60 60" fill="none" xmlns="http://www.w3.org/2000/svg">
<path d="M14.188 19.1042H2.27319C1.74439 19.1042 1.31592 19.5331 1.31592 20.062V58.3598C1.31592 58.8888 1.74439 59.3176 2.27319 59.3176H14.188C14.7168 59.3176 15.1452 58.8888 15.1452 58.3598V20.062C15.1452 19.5331 14.7168 19.1042 14.188 19.1042Z" fill="#212529"/>
<path d="M8.23483 0.0654297C3.89953 0.0654297 0.372559 3.59047 0.372559 7.92331C0.372559 12.2581 3.89953 15.7845 8.23483 15.7845C12.5667 15.7845 16.0908 12.2579 16.0908 7.92331C16.091 3.59047 12.5667 0.0654297 8.23483 0.0654297Z" fill="#212529"/>
<path d="M44.4933 18.1523C39.7079 18.1523 36.1704 20.2106 34.0247 22.5494V20.062C34.0247 19.5331 33.5963 19.1042 33.0675 19.1042H21.657C21.1282 19.1042 20.6997 19.5331 20.6997 20.062V58.3597C20.6997 58.8888 21.1282 59.3175 21.657 59.3175H33.5457C34.0745 59.3175 34.503 58.8888 34.503 58.3597V39.4112C34.503 33.026 36.2364 30.5385 40.6851 30.5385C45.53 30.5385 45.915 34.5263 45.915 39.7397V58.3599C45.915 58.889 46.3435 59.3177 46.8723 59.3177H58.7655C59.2942 59.3177 59.7227 58.889 59.7227 58.3599V37.3529C59.7227 27.8584 57.9133 18.1523 44.4933 18.1523Z" fill="#212529"/>
</svg>
