<svg width="109" height="97" viewBox="0 0 109 97" fill="none" xmlns="http://www.w3.org/2000/svg">
<g clip-path="url(#clip0_481_192)">
<path d="M54.6186 37.2938L37.508 19.5021L54.6186 1.71045L71.7292 19.5021L54.6186 37.2938ZM0.842285 93.2104V72.8771C0.842285 69.9966 1.79967 67.582 3.71443 65.6334C5.62919 63.6847 7.93098 62.7104 10.6198 62.7104H26.6305C28.2601 62.7104 29.8082 63.1341 31.2748 63.9813C32.7414 64.8285 33.9229 65.9723 34.8191 67.4125C37.182 70.7167 40.0949 73.3007 43.5578 75.1646C47.0207 77.0285 50.7076 77.9604 54.6186 77.9604C58.6111 77.9604 62.3388 77.0285 65.8016 75.1646C69.2645 73.3007 72.1366 70.7167 74.4181 67.4125C75.4773 65.9723 76.7198 64.8285 78.1457 63.9813C79.5716 63.1341 81.0586 62.7104 82.6067 62.7104H98.6174C101.388 62.7104 103.71 63.6847 105.584 65.6334C107.458 67.582 108.395 69.9966 108.395 72.8771V93.2104H74.1736V81.6459C71.3218 83.7639 68.246 85.3736 64.9461 86.475C61.6462 87.5764 58.2037 88.1271 54.6186 88.1271C51.115 88.1271 47.6929 87.5552 44.3522 86.4115C41.0116 85.2677 37.9153 83.6368 35.0636 81.5188V93.2104H0.842285ZM15.5086 57.6271C11.4346 57.6271 7.97172 56.1445 5.11995 53.1792C2.26817 50.2139 0.842285 46.6132 0.842285 42.3771C0.842285 38.0563 2.26817 34.4344 5.11995 31.5115C7.97172 28.5886 11.4346 27.1271 15.5086 27.1271C19.664 27.1271 23.1472 28.5886 25.9583 31.5115C28.7693 34.4344 30.1748 38.0563 30.1748 42.3771C30.1748 46.6132 28.7693 50.2139 25.9583 53.1792C23.1472 56.1445 19.664 57.6271 15.5086 57.6271ZM93.7286 57.6271C89.6547 57.6271 86.1918 56.1445 83.34 53.1792C80.4883 50.2139 79.0624 46.6132 79.0624 42.3771C79.0624 38.0563 80.4883 34.4344 83.34 31.5115C86.1918 28.5886 89.6547 27.1271 93.7286 27.1271C97.8841 27.1271 101.367 28.5886 104.178 31.5115C106.989 34.4344 108.395 38.0563 108.395 42.3771C108.395 46.6132 106.989 50.2139 104.178 53.1792C101.367 56.1445 97.8841 57.6271 93.7286 57.6271Z" fill="#4263EB"/>
</g>
<defs>
<clipPath id="clip0_481_192">
<rect width="107.553" height="96.3158" fill="white" transform="translate(0.842285 0.105225)"/>
</clipPath>
</defs>
</svg>
